<svg xmlns="http://www.w3.org/2000/svg" viewBox="0 0 820 424" width="820" height="424" font-family="'JetBrains Mono','Fira Mono','Courier New',monospace" role="img" aria-label="Contribuições por dia — últimos 31 dias: 1.770 contribuições em 31 dias, média 57,1 e mediana 70 por dia, pico de 148 contribuições em 15/09/2026, 21 dias ativos (68%), streak atual 0 e recorde 5.">
  <defs>
    <linearGradient id="border" x1="0" y1="0" x2="1" y2="1">
      <stop offset="0" stop-color="#22C55E" stop-opacity="0.55"/>
      <stop offset="0.5" stop-color="#064E3B" stop-opacity="0.35"/>
      <stop offset="1" stop-color="#22C55E" stop-opacity="0.15"/>
    </linearGradient>
    <clipPath id="plotclip"><rect x="69" y="200" width="722" height="158"/></clipPath>
  </defs>
  <!-- Sem animacao de entrada de proposito: este SVG e consumido como <img> no
       README, onde um wipe por clip-path CSS pode nunca resolver e deixar o
       grafico VAZIO. Dado tem que ser legivel no primeiro frame. -->

  <rect x="1.5" y="1.5" width="817" height="421" rx="14" fill="#0D1117"/>
  <rect x="1.5" y="1.5" width="817" height="421" rx="14" fill="none" stroke="url(#border)" stroke-width="1.5"/>
  <path d="M1.5 15.5 A14 14 0 0 1 15.5 1.5 H804.5 A14 14 0 0 1 818.5 15.5 V46 H1.5 Z" fill="#161B22"/>
  <line x1="1.5" y1="46" x2="818.5" y2="46" stroke="#22C55E" stroke-opacity="0.18" stroke-width="1"/>
  <circle cx="28" cy="24" r="6" fill="#FF5F56"/><circle cx="50" cy="24" r="6" fill="#FFBD2E"/><circle cx="72" cy="24" r="6" fill="#27C93F"/>
  <text x="410" y="29" font-size="13" fill="#8B949E" text-anchor="middle">guilherme@fsociety: ~/stats — últimos 31 dias</text>

  <text x="30" y="76" font-size="12.5">
    <tspan fill="#22C55E" font-weight="700">guilherme@fsociety</tspan><tspan fill="#7B838D">:~$</tspan><tspan fill="#C9D1D9"> gh api graphql --contributions --since=31.days | stats</tspan>
  </text>

  
    <text x="30" y="108" font-size="10.5" letter-spacing="0.6" fill="#8B949E">CONTRIBUIÇÕES</text>
    <text x="30" y="135" font-size="27" font-weight="700" fill="#22C55E">1.770</text>
    <text x="30" y="151" font-size="10" fill="#7B838D">em 31 dias</text>
    <text x="182" y="108" font-size="10.5" letter-spacing="0.6" fill="#8B949E">MÉDIA/DIA</text>
    <text x="182" y="135" font-size="20" font-weight="700" fill="#C9D1D9">57,1</text>
    <text x="182" y="151" font-size="10" fill="#7B838D">ativos: 84,3</text>
    <text x="334" y="108" font-size="10.5" letter-spacing="0.6" fill="#8B949E">MEDIANA/DIA</text>
    <text x="334" y="135" font-size="20" font-weight="700" fill="#C9D1D9">70</text>
    <text x="334" y="151" font-size="10" fill="#7B838D">ativos: 82</text>
    <text x="486" y="108" font-size="10.5" letter-spacing="0.6" fill="#8B949E">PICO EM UM DIA</text>
    <text x="486" y="135" font-size="20" font-weight="700" fill="#C9D1D9">148</text>
    <text x="486" y="151" font-size="10" fill="#7B838D">15/09/2026</text>
    <text x="638" y="108" font-size="10.5" letter-spacing="0.6" fill="#8B949E">DIAS ATIVOS</text>
    <text x="638" y="135" font-size="20" font-weight="700" fill="#C9D1D9">21</text>
    <text x="638" y="151" font-size="10" fill="#7B838D">68% · streak 0</text>

  <line x1="30" y1="188" x2="790" y2="188" stroke="#1F2630" stroke-width="1"/>
  <text x="30" y="208" font-size="11" fill="#8B949E">contribuições por dia</text>
  
    <line x1="543.6" y1="204.5" x2="561.6" y2="204.5" stroke="#38BDF8" stroke-width="2" stroke-dasharray="6 4"/>
    <text x="567.6" y="208" font-size="10.5" fill="#8B949E">média/dia 57,1</text>
    <line x1="677.8" y1="204.5" x2="695.8" y2="204.5" stroke="#F472B6" stroke-width="2" stroke-dasharray="2 3"/>
    <text x="701.8" y="208" font-size="10.5" fill="#8B949E">mediana/dia 70</text>

  <g><line x1="70" y1="356" x2="790" y2="356" stroke="#7B838D" stroke-width="1" stroke-opacity="0.5"/><text x="60" y="359.5" font-size="10" fill="#7B838D" text-anchor="end" style="font-variant-numeric:tabular-nums">0</text><line x1="70" y1="323" x2="790" y2="323" stroke="#1F2630" stroke-width="1" /><text x="60" y="326.5" font-size="10" fill="#7B838D" text-anchor="end" style="font-variant-numeric:tabular-nums">40</text><line x1="70" y1="290" x2="790" y2="290" stroke="#1F2630" stroke-width="1" /><text x="60" y="293.5" font-size="10" fill="#7B838D" text-anchor="end" style="font-variant-numeric:tabular-nums">80</text><line x1="70" y1="257" x2="790" y2="257" stroke="#1F2630" stroke-width="1" /><text x="60" y="260.5" font-size="10" fill="#7B838D" text-anchor="end" style="font-variant-numeric:tabular-nums">120</text><line x1="70" y1="224" x2="790" y2="224" stroke="#1F2630" stroke-width="1" /><text x="60" y="227.5" font-size="10" fill="#7B838D" text-anchor="end" style="font-variant-numeric:tabular-nums">160</text></g>
  <g clip-path="url(#plotclip)"><path d="M81.6 288.4L104.8 294.1L128.1 238.9L151.3 356L174.5 356L197.7 274.3L221 307.3L244.2 311.5L267.4 325.5L290.6 286.7L313.9 356L337.1 356L360.3 282.6L383.5 298.3L406.8 265.3L430 270.2L453.2 301.6L476.5 356L499.7 356L522.9 356L546.1 287.5L569.4 292.5L592.6 291.7L615.8 289.2L639 356L662.3 356L685.5 306.5L708.7 233.9L731.9 285.9L755.2 284.2L778.4 356L778.4 356L81.6 356Z" fill="#22C55E" fill-opacity="0.1"/><path d="M81.6 288.4L104.8 294.1L128.1 238.9L151.3 356L174.5 356L197.7 274.3L221 307.3L244.2 311.5L267.4 325.5L290.6 286.7L313.9 356L337.1 356L360.3 282.6L383.5 298.3L406.8 265.3L430 270.2L453.2 301.6L476.5 356L499.7 356L522.9 356L546.1 287.5L569.4 292.5L592.6 291.7L615.8 289.2L639 356L662.3 356L685.5 306.5L708.7 233.9L731.9 285.9L755.2 284.2L778.4 356" fill="none" stroke="#22C55E" stroke-width="2" stroke-linejoin="round" stroke-linecap="round"/><circle cx="778.4" cy="356" r="4" fill="#22C55E" stroke="#0D1117" stroke-width="2"/></g>
  <g><line x1="70" y1="308.9" x2="790" y2="308.9" stroke="#38BDF8" stroke-width="1.5" stroke-dasharray="6 4"/><line x1="70" y1="298.3" x2="790" y2="298.3" stroke="#F472B6" stroke-width="1.5" stroke-dasharray="2 3"/></g>
  <g><text x="81.6" y="374" font-size="10" fill="#7B838D" text-anchor="middle">19/08</text><text x="174.5" y="374" font-size="10" fill="#7B838D" text-anchor="middle">23/08</text><text x="267.4" y="374" font-size="10" fill="#7B838D" text-anchor="middle">27/08</text><text x="360.3" y="374" font-size="10" fill="#7B838D" text-anchor="middle">31/08</text><text x="453.2" y="374" font-size="10" fill="#7B838D" text-anchor="middle">04/09</text><text x="546.1" y="374" font-size="10" fill="#7B838D" text-anchor="middle">08/09</text><text x="639" y="374" font-size="10" fill="#7B838D" text-anchor="middle">12/09</text><text x="731.9" y="374" font-size="10" fill="#7B838D" text-anchor="middle">16/09</text></g>

  <text x="30" y="406" font-size="10" fill="#7B838D">todos os dias  ·  agrupado por dia  ·  commits + PRs + issues + reviews  ·  melhor sequência 5  ·  atualizado 18/09/2026</text>
</svg>
